<?xml version="1.0" encoding="utf-8"?>
<!-- Generator: Adobe Illustrator 21.0.0, SVG Export Plug-In . SVG Version: 6.00 Build 0)  -->
<svg version="1.1" id="Layer_1" xmlns="http://www.w3.org/2000/svg" xmlns:xlink="http://www.w3.org/1999/xlink" x="0px" y="0px"
	 width="120px" height="40px" viewBox="0 0 120 40" style="enable-background:new 0 0 120 40;" xml:space="preserve">
<style type="text/css">
	.st0{fill:#FFFFFF;}
</style>
<g>
	<path class="st0" d="M15.5,5.5h17.2c1.4,0,2.5,1.1,2.5,2.5v29.5c0,1.4-1.1,2.5-2.5,2.5H15.5c-1.4,0-2.5-1.1-2.5-2.5V8
		C13,6.6,14.2,5.5,15.5,5.5L15.5,5.5z M1.9,4.5l16.6-4.4c1.3-0.4,2.7,0.4,3.1,1.8l0.3,1.1h-6.3c-2.8,0-5.1,2.3-5.1,5.1v29.5
		c0,0.2,0,0.3,0,0.4c-1.2,0.2-2.4-0.6-2.8-1.8L0.1,7.6C-0.3,6.3,0.5,4.9,1.9,4.5L1.9,4.5z M24.7,15.4c-0.3-0.4-0.8-0.4-1.1,0
		l-4.1,5.8c-0.2,0.2-0.2,0.6,0,0.8l4.1,5.8c0.3,0.4,0.8,0.4,1.1,0l4.1-5.8c0.2-0.2,0.2-0.6,0-0.8L24.7,15.4z"/>
</g>
<g>
	<path class="st0" d="M68.6,27.7h2.3V12.3h-2.3V8.9h9.3l4.3,10.4h0.1l4.2-10.4h9.3v3.4h-2.3v15.4h2.3v3.3H85.7v-3.3h2V16.4h-0.1
		l-4.2,10.1h-3.4l-4.2-10.1h-0.1v11.3h2v3.3h-9V27.7z"/>
	<path class="st0" d="M111.5,11c0.2-1.1,0.4-2.1,0.7-2.1h3.8v6.7h-4.7c-0.5-1.7-1.6-2.8-3.7-2.8c-2.7,0-4.2,1.9-4.2,5.6v3.1
		c0,3.8,1.4,5.6,4.2,5.6c2.5,0,3.6-1.4,3.6-3.7v-0.6h-2.8v-3.7h8.5v4.4c0,5.2-3.4,8-9.3,8c-5.8,0-10.2-3.1-10.2-9.8v-3.5
		c0-6.3,4.1-9.7,9.2-9.7C109,8.5,110.6,9.5,111.5,11z"/>
</g>
<g>
	<path class="st0" d="M39.7,27.7h1.8v-8.8h-2v-3.4h6.2c0.3,0,0.6,1.4,0.8,2.6c1-1.9,2.8-3,4.8-3c1.8,0,3.4,1,4.2,2.8
		c1-1.6,2.6-2.8,4.8-2.8c3,0,5.2,2.2,5.2,6.2v6.4h1.7v3.3h-7v-9c0-1.6-0.5-2.6-1.9-2.6c-1.3,0-2,1.1-2,2.3v6h1.6v3.3h-7v-9
		c0-1.6-0.5-2.6-1.9-2.6c-1.4,0-2,1.1-2,2.3v6h1.6v3.3h-8.7V27.7z"/>
</g>
</svg>
